<svg xmlns="http://www.w3.org/2000/svg" viewBox="0 0 400 260" role="img" aria-label="CV-CAS-03">
<rect width="400" height="260" fill="#f7f4ef"/>
<ellipse cx="205" cy="212" rx="160" ry="10" fill="#000" opacity=".08"/>
<path d="M60 150 C60 90 90 60 120 55 L150 50 C165 48 175 60 178 80 L182 110 C230 118 300 125 330 140 C350 150 352 165 345 175 L70 178 Z" fill="#7c2d12"/>
<path d="M58 176 L348 176 C356 176 358 190 350 196 L70 200 C58 200 52 190 58 176 Z" fill="#f5f5f4"/>
<path d="M190 110 L250 122 M200 98 L245 108 M210 86 L240 94" stroke="#ffffff" stroke-width="5" stroke-linecap="round" opacity=".8"/>
<path d="M70 165 L340 165" stroke="#ffffff" stroke-width="2" stroke-dasharray="6 6" opacity=".6"/>
<text x="200" y="245" text-anchor="middle" font-family="Arial, sans-serif" font-size="14" fill="#78716c">CV-CAS-03</text>
</svg>